{"accessors" : [{"bufferView" : 0, "byteOffset" : 0, "componentType" : 5123, "count" : 38556, "type" : "SCALAR", "max" : [25703], "min" : [0]}, {"bufferView" : 1, "byteOffset" : 0, "componentType" : 5126, "count" : 25704, "type" : "VEC3", "max" : [0.9750310778617859, 0.8546456694602966, 0.6327468156814575], "min" : [-0.9322851896286011, -0.9458385109901428, -0.6697273850440979], "name" : "POSITION"}, {"bufferView" : 1, "byteOffset" : 12, "componentType" : 5126, "count" : 25704, "type" : "VEC3", "max" : [0.9998427629470825, 0.9998695850372314, 0.9997187852859497], "min" : [-0.9997819662094116, -0.999863862991333, -0.9999712705612183], "name" : "NORMAL"}, {"bufferView" : 1, "byteOffset" : 24, "componentType" : 5126, "count" : 25704, "type" : "VEC2", "max" : [0.9922503232955933, 0.9927487373352051], "min" : [0.006156808231025934, 0.006392478942871094], "name" : "TEXCOORD_0"}], "asset" : {"generator" : "Aspose.3D 25.11.0", "version" : "2.0"}, "buffers" : [{"uri" : "data:application/octet-stream;base64,", "byteLength" : 899648}], "bufferViews" : [{"buffer" : 0, "byteOffset" : 0, "byteLength" : 77112, "target" : 34963}, {"buffer" : 0, "byteOffset" : 77116, "byteLength" : 822528, "byteStride" : 32, "target" : 34962}], "materials" : [{"name" : "Rocky_Asteroid_5", "pbrMetallicRoughness" : {"baseColorFactor" : [0.8, 0.8, 0.8, 1], "metallicFactor" : 1, "roughnessFactor" : 1}, "emissiveFactor" : [0, 0, 0], "alphaMode" : "OPAQUE", "doubleSided" : false}], "meshes" : [{"primitives" : [{"attributes" : {"POSITION" : 1, "NORMAL" : 2, "TEXCOORD_0" : 3}, "indices" : 0, "material" : 0, "mode" : 4}], "name" : "Rocky_Asteroid_5"}], "nodes" : [{"matrix" : [100, 0, 0, 0, 0, -1.6292067955264296E-05, -99.99999999999866, 0, 0, 99.99999999999866, -1.6292067955264296E-05, 0, 0, 0, 0, 1], "mesh" : 0, "name" : "Rocky_Asteroid_5"}], "scene" : 0, "scenes" : [{"nodes" : [0]}]}