{"accessors" : [{"bufferView" : 0, "byteOffset" : 0, "componentType" : 5123, "count" : 14688, "type" : "SCALAR", "max" : [9901], "min" : [0]}, {"bufferView" : 1, "byteOffset" : 0, "componentType" : 5126, "count" : 9902, "type" : "VEC3", "max" : [76.12574005126953, 14.910327911376953, 13.073110580444336], "min" : [-107.0353012084961, -13.092440605163574, -13.11178207397461], "name" : "POSITION"}, {"bufferView" : 1, "byteOffset" : 12, "componentType" : 5126, "count" : 9902, "type" : "VEC3", "max" : [1.0000044107437134, 1.0000044107437134, 1.0000044107437134], "min" : [-1.0000044107437134, -1.0000044107437134, -1.0000044107437134], "name" : "NORMAL"}, {"bufferView" : 1, "byteOffset" : 24, "componentType" : 5126, "count" : 9902, "type" : "VEC2", "max" : [0.995444118976593, 1], "min" : [0, 0.00390625], "name" : "TEXCOORD_0"}, {"bufferView" : 0, "byteOffset" : 29376, "componentType" : 5123, "count" : 1152, "type" : "SCALAR", "max" : [767], "min" : [0]}, {"bufferView" : 2, "byteOffset" : 0, "componentType" : 5126, "count" : 768, "type" : "VEC3", "max" : [78.85851287841797, 8.873130798339844, 8.828369140625], "min" : [73.17466735839844, -8.822615623474121, -8.867376327514648], "name" : "POSITION"}, {"bufferView" : 2, "byteOffset" : 12, "componentType" : 5126, "count" : 768, "type" : "VEC3", "max" : [1.0000044107437134, 1.0000044107437134, 1.0000044107437134], "min" : [-0.6369460225105286, -0.9956170320510864, -0.9956162571907043], "name" : "NORMAL"}, {"bufferView" : 2, "byteOffset" : 24, "componentType" : 5126, "count" : 768, "type" : "VEC2", "max" : [0.9878953099250793, 0.99609375], "min" : [0.06777399033308029, 0.007145106792449951], "name" : "TEXCOORD_0"}], "asset" : {"generator" : "Aspose.3D 25.11.0", "version" : "2.0"}, "buffers" : [{"uri" : "data:application/octet-stream;base64,", "byteLength" : 373132}], "bufferViews" : [{"buffer" : 0, "byteOffset" : 0, "byteLength" : 31680, "target" : 34963}, {"buffer" : 0, "byteOffset" : 31684, "byteLength" : 316864, "byteStride" : 32, "target" : 34962}, {"buffer" : 0, "byteOffset" : 348552, "byteLength" : 24576, "byteStride" : 32, "target" : 34962}], "images" : [{"uri" : "E:\\\\\\1\\L_DefaultMaterial_NormalGL.png"}, {"uri" : "E:\\\\\\1\\L_DefaultMaterial_BaseColor.png"}], "materials" : [{"name" : "Base", "pbrMetallicRoughness" : {"baseColorFactor" : [1, 1, 1, 1], "baseColorTexture" : {"index" : 1, "texCoord" : 0}, "metallicFactor" : 1, "roughnessFactor" : 1}, "normalTexture" : {"index" : 0, "texCoord" : 0, "scale" : 1}, "emissiveFactor" : [0, 0, 0], "alphaMode" : "OPAQUE", "doubleSided" : false}], "meshes" : [{"primitives" : [{"attributes" : {"POSITION" : 1, "NORMAL" : 2, "TEXCOORD_0" : 3}, "indices" : 0, "material" : 0, "mode" : 4}, {"attributes" : {"POSITION" : 5, "NORMAL" : 6, "TEXCOORD_0" : 7}, "indices" : 4, "material" : 0, "mode" : 4}], "name" : ".020"}], "nodes" : [{"matrix" : [1, 0, 0, 0, 0, 1, 0, 0, 0, 0, 1, 0, -64.3215103149414, 66.05133819580078, 0, 1], "mesh" : 0, "name" : "Roket"}], "samplers" : [{"magFilter" : 9729, "minFilter" : 9729, "wrapS" : 10497, "wrapT" : 10497}, {"magFilter" : 9729, "minFilter" : 9729, "wrapS" : 10497, "wrapT" : 10497}], "scene" : 0, "scenes" : [{"nodes" : [0]}], "textures" : [{"sampler" : 0, "source" : 0, "name" : "normalmap_texture"}, {"sampler" : 1, "source" : 1, "name" : "base_color_texture"}]}