{"accessors" : [{"bufferView" : 0, "byteOffset" : 0, "componentType" : 5123, "count" : 4011, "type" : "SCALAR", "max" : [2639], "min" : [0]}, {"bufferView" : 1, "byteOffset" : 0, "componentType" : 5126, "count" : 2640, "type" : "VEC3", "max" : [0.10758736729621887, 0.03185656666755676, 0.15131904184818268], "min" : [-0.10758735239505768, -0.031854644417762756, -0.15132002532482147], "name" : "POSITION"}, {"bufferView" : 1, "byteOffset" : 12, "componentType" : 5126, "count" : 2640, "type" : "VEC3", "max" : [1.0000033378601074, 0.9986299872398376, 0.999808132648468], "min" : [-0.9988244771957397, -0.9952078461647034, -0.9998359680175781], "name" : "NORMAL"}, {"bufferView" : 1, "byteOffset" : 24, "componentType" : 5126, "count" : 2640, "type" : "VEC2", "max" : [0.9950000643730164, 0.9950000047683716], "min" : [0.004999999888241291, 0.04107773303985596], "name" : "TEXCOORD_0"}], "asset" : {"generator" : "Aspose.3D 25.11.0", "version" : "2.0"}, "buffers" : [{"uri" : "data:application/octet-stream;base64,", "byteLength" : 92512}], "bufferViews" : [{"buffer" : 0, "byteOffset" : 0, "byteLength" : 8024, "target" : 34963}, {"buffer" : 0, "byteOffset" : 8028, "byteLength" : 84480, "byteStride" : 32, "target" : 34962}], "images" : [{"uri" : "C:\\Users\\Gabriel\\Desktop\\PACOTE DE 3D\\Spaceship Pack\\Spaceship 1\\spaceship.jpg"}], "materials" : [{"name" : "spaceship", "pbrMetallicRoughness" : {"baseColorFactor" : [1, 1, 1, 1], "baseColorTexture" : {"index" : 0, "texCoord" : 0}, "metallicFactor" : 1, "roughnessFactor" : 1}, "emissiveFactor" : [0.800000011920929, 0.800000011920929, 0.800000011920929], "alphaMode" : "OPAQUE", "doubleSided" : false}], "meshes" : [{"primitives" : [{"attributes" : {"POSITION" : 1, "NORMAL" : 2, "TEXCOORD_0" : 3}, "indices" : 0, "material" : 0, "mode" : 4}], "name" : "player_Cube"}], "nodes" : [{"matrix" : [4978.8076171875, 0, 0, 0, 0, 4978.807617187434, 0.0008111508179444552, 0, 0, -0.0008111508179444552, 4978.807617187434, 0, 1100.252197265625, 621.08544921875, 2680.312255859375, 1], "mesh" : 0, "name" : "player_Cube"}], "samplers" : [{"magFilter" : 9729, "minFilter" : 9729, "wrapS" : 10497, "wrapT" : 10497}], "scene" : 0, "scenes" : [{"nodes" : [0]}], "textures" : [{"sampler" : 0, "source" : 0, "name" : "spaceship"}]}